<svg viewBox="0 0 512 512" xmlns="http://www.w3.org/2000/svg" xmlns:xlink="http://www.w3.org/1999/xlink"><linearGradient id="a" gradientUnits="userSpaceOnUse" x1="0" x2="512" y1="256" y2="256"><stop offset="0" stop-color="#00f2fe"></stop><stop offset=".0208" stop-color="#03effe"></stop><stop offset=".2931" stop-color="#24d2fe"></stop><stop offset=".5538" stop-color="#3cbdfe"></stop><stop offset=".7956" stop-color="#4ab0fe"></stop><stop offset="1" stop-color="#4facfe"></stop></linearGradient><path d="m392 275.878906h-272c-22.054688 0-40-17.945312-40-40v-39.878906c0-22.054688 17.945312-40 40-40h272c22.054688 0 40 17.945312 40 40v39.878906c0 22.054688-17.945312 40-40 40zm-272-79.878906c-.019531 0-.023438 0-.023438 0l.023438 39.878906h272v-39.878906zm312-97c0-11.046875-8.953125-20-20-20h-312c-11.046875 0-20 8.953125-20 20s8.953125 20 20 20h312c11.046875 0 20-8.953125 20-20zm0 274c0-11.046875-8.953125-20-20-20h-152c-11.046875 0-20 8.953125-20 20s8.953125 20 20 20h152c11.046875 0 20-8.953125 20-20zm-272 59.757812h-40c-22.054688 0-40-17.945312-40-40v-39.878906c0-22.058594 17.945312-40 40-40h40c22.054688 0 40 17.941406 40 40v39.878906c0 22.054688-17.945312 40-40 40zm-40-79.878906c-.019531 0-.023438 0-.023438 0l.023438 39.878906h40v-39.878906zm392 79.121094c0-11.046875-8.953125-20-20-20s-20 8.953125-20 20c0 22.054688-17.945312 40-40 40h-352c-22.054688 0-40-17.945312-40-40v-352c0-22.054688 17.945312-40 40-40h352c22.054688 0 40 17.945312 40 40v252c0 11.046875 8.953125 20 20 20s20-8.953125 20-20v-252c0-44.113281-35.886719-80-80-80h-352c-44.113281 0-80 35.886719-80 80v352c0 44.113281 35.886719 80 80 80h352c44.113281 0 80-35.886719 80-80zm0 0" fill="url(#a)"></path></svg>